HIERARCHY
ROOT Hips
{
  OFFSET 0 0 0
  CHANNELS 6 Xposition Yposition Zposition Zrotation Xrotation Yrotation
  JOINT Spine
  {
    OFFSET 0.00000000 0.00000000 0.00000000
    CHANNELS 3 Zrotation Xrotation Yrotation
    JOINT Spine1
    {
      OFFSET 0.19000000 0.00000000 0.00000000
      CHANNELS 3 Zrotation Xrotation Yrotation
      JOINT Neck
      {
        OFFSET 0.22500000 0.00600000 0.00000000
        CHANNELS 3 Zrotation Xrotation Yrotation
        JOINT Head
        {
          OFFSET 0.14000000 0.00030878 0.00000000
          CHANNELS 3 Zrotation Xrotation Yrotation
          End Site
          {
            OFFSET 0.17000000 0.00000000 0.00000000
          }
        }
      }
      JOINT LeftShoulder
      {
        OFFSET 0.19800000 0.03700000 0.04300000
        CHANNELS 3 Zrotation Xrotation Yrotation
        JOINT LeftArm
        {
          OFFSET 0.08000000 0.00000000 0.00000000
          CHANNELS 3 Zrotation Xrotation Yrotation
          JOINT LeftForeArm
          {
            OFFSET 0.15200000 0.00000000 0.00000000
            CHANNELS 3 Zrotation Xrotation Yrotation
            JOINT LeftHand
            {
              OFFSET 0.17800000 0.00000000 0.00000000
              CHANNELS 3 Zrotation Xrotation Yrotation
              End Site
              {
                OFFSET 0.07200000 0.00000000 0.00000000
              }
            }
          }
        }
      }
      JOINT RightShoulder
      {
        OFFSET 0.19800000 0.03700000 -0.04300000
        CHANNELS 3 Zrotation Xrotation Yrotation
        JOINT RightArm
        {
          OFFSET 0.08000000 0.00000000 0.00151654
          CHANNELS 3 Zrotation Xrotation Yrotation
          JOINT RightForeArm
          {
            OFFSET 0.15200000 0.00000000 0.00000000
            CHANNELS 3 Zrotation Xrotation Yrotation
            JOINT RightHand
            {
              OFFSET 0.17800000 0.00000000 0.00000000
              CHANNELS 3 Zrotation Xrotation Yrotation
              End Site
              {
                OFFSET 0.07200000 0.00000000 0.00000000
              }
            }
          }
        }
      }
    }
  }
  JOINT LeftUpLeg
  {
    OFFSET 0.05984250 -0.07666000 0.04788790
    CHANNELS 3 Zrotation Xrotation Yrotation
    JOINT LeftLeg
    {
      OFFSET 0.16000000 0.00000000 0.00000000
      CHANNELS 3 Zrotation Xrotation Yrotation
      JOINT LeftFoot
      {
        OFFSET 0.18000000 0.00000000 0.00000000
        CHANNELS 3 Zrotation Xrotation Yrotation
        End Site
        {
          OFFSET 0.00000000 -0.10800000 0.00000000
        }
      }
    }
  }
  JOINT RightUpLeg
  {
    OFFSET 0.05984250 -0.07665980 -0.04788790
    CHANNELS 3 Zrotation Xrotation Yrotation
    JOINT RightLeg
    {
      OFFSET 0.16000000 0.00000000 0.00000000
      CHANNELS 3 Zrotation Xrotation Yrotation
      JOINT RightFoot
      {
        OFFSET 0.18000000 0.00000000 0.00000000
        CHANNELS 3 Zrotation Xrotation Yrotation
        End Site
        {
          OFFSET 0.00000000 -0.10800000 0.00000000
        }
      }
    }
  }
  JOINT Tail
  {
    OFFSET 0.06836960 -0.00722574 0.00000000
    CHANNELS 3 Zrotation Xrotation Yrotation
    JOINT Tail1
    {
      OFFSET 0.12000000 0.00000000 0.00000000
      CHANNELS 3 Zrotation Xrotation Yrotation
      End Site
      {
        OFFSET 0.12000000 0.00000000 0.00000000
      }
    }
  }
}
MOTION
Frames:	12
Frame Time:	0.0166667
-0.9102406 0.4622230 1.3644781 1.59724 -5.72135 76.8119 -164.726 -2.60726 -2.18252 -20.3042 2.70492 -12.6563 -30.8686 -3.33049 -3.03872 -112.928 69.7683 107.202 -108.768 -31.4391 -144.627 134.989 -31.5072 -123.322 -40.9329 12.903 -8.08914 -14.1738 1.4099 -8.97012 76.6772 -27.5436 43.5419 33.0541 -45.8568 -50.9243 -49.1937 -19.8141 4.73605 -8.62 0.0407468 4.70769 -122.785 -6.83177 -17.0237 81.1595 1.47473 5.09622 47.3896 -2.0523 -4.11238 -104.145 -2.8541 -1.96261 76.5761 -4.71012 -0.993771 56.445 1.10894 -1.4908 -83.4233 77.6574 38.5615 116.701 -86.2412 122.383 
-0.9104187 0.4623530 1.3636097 1.62303 -5.78194 76.7401 -164.582 -2.54647 -1.9811 -20.3686 2.9812 -13.3019 -31.0149 -0.571091 -4.29456 -113.766 70.0774 109.676 -108.317 -31.1408 -143.985 136.293 -31.4041 -122.19 -40.2975 13.4404 -8.6564 -14.0263 1.21801 -8.35244 76.7238 -27.4962 43.5977 33.805 -45.6171 -50.6603 -49.2857 -19.9863 5.02025 -8.53949 0.0362792 4.69653 -122.751 -6.81797 -17.1173 81.0565 1.63921 5.1798 47.3452 -2.05778 -4.1253 -104.35 -2.88103 -2.10109 76.7246 -4.07006 -0.92141 56.5178 1.01854 -1.58409 -125.425 73.5313 79.5331 166.74 -69.2268 174.803 
-0.9105776 0.4621560 1.3631101 1.71934 -5.70649 76.8423 -164.683 -2.55412 -1.95663 -20.2761 2.97859 -13.3675 -31.3372 2.08141 -5.49256 -115.087 71.509 112.833 -108.558 -31.3554 -144.198 136.009 -31.3236 -122.285 -40.4877 13.4334 -8.48258 -14.2594 1.19496 -8.24132 76.6454 -27.545 43.4219 34.3488 -45.5988 -50.2137 -49.587 -19.976 5.10986 -8.46743 0.0135247 4.78111 -122.964 -6.65023 -16.8969 81.1173 1.58525 5.085 47.4112 -2.03663 -4.10208 -104.459 -2.86728 -2.16049 76.7137 -3.88321 -0.920938 56.3547 0.97151 -1.61859 -147.358 65.4518 99.5256 169.827 -52.9614 179.976 
-0.9110742 0.4620720 1.3627709 1.93102 -5.48803 76.9858 -165.029 -2.60665 -2.07426 -20.1445 2.87446 -13.227 -31.4869 3.6614 -6.50459 -116.056 72.4263 115.694 -108.51 -31.3266 -144.123 136.31 -31.3026 -122.148 -40.4209 13.3022 -8.33385 -14.3416 1.20242 -8.256 76.6334 -27.4987 43.2511 34.7004 -45.5517 -49.8289 -49.682 -19.8832 5.20188 -8.46348 -0.0206844 4.95179 -123.288 -6.71929 -16.9232 80.9872 1.74158 5.16616 47.476 -2.04598 -4.10087 -104.652 -2.90518 -2.25311 76.6681 -3.62084 -0.851207 56.0909 0.929364 -1.65663 -161.541 56.0173 110.134 170.725 -37.7409 -177.108 
-0.9117996 0.4619840 1.3623175 2.22785 -5.21360 77.1181 -165.622 -2.74308 -2.27871 -19.653 2.67941 -13.1617 -32.0243 5.27007 -7.45518 -117.489 73.3285 118.72 -108.95 -31.8075 -144.293 136.329 -31.2145 -121.73 -40.1708 13.5813 -8.57765 -14.463 1.16583 -8.20583 76.6651 -27.5733 43.574 34.5004 -45.3345 -49.995 -49.4231 -20.6956 5.17223 -9.32156 0.126753 4.5324 -123.636 -6.70357 -16.619 80.7982 1.66138 5.11802 47.5646 -2.0319 -4.07446 -104.722 -2.90983 -2.14411 76.4012 -3.57408 -0.845694 55.6856 0.905049 -1.66143 -172.638 46.02 116.106 171.032 -23.158 -174.455 
-0.9127284 0.4617560 1.3621373 2.59931 -4.79141 77.3481 -166.084 -2.93447 -2.70554 -19.8838 2.31047 -12.4077 -31.882 6.45958 -8.43558 -118.77 74.2923 120.136 -108.742 -31.6112 -144.139 136.597 -31.4025 -121.885 -40.0491 13.6094 -8.36089 -14.4516 1.19756 -8.42823 76.6894 -27.4201 43.2597 34.4115 -45.4164 -49.8506 -49.2859 -19.483 5.2657 -8.79689 -0.107522 5.30701 -124.158 -6.81498 -16.8587 80.4892 2.07467 5.42187 47.7976 -2.07826 -4.13953 -105.266 -2.90949 -2.35191 76.3827 -2.88141 -0.725506 55.813 0.818959 -1.776 177.311 36.6407 119.496 170.715 -9.50853 -171.786 
-0.9132530 0.4615840 1.3619313 2.91209 -4.55577 77.7438 -166.231 -3.02239 -2.85107 -20.1676 2.01566 -11.7135 -31.7772 6.65784 -9.01876 -118.592 75.9835 120.398 -108.711 -31.6468 -143.963 137.234 -31.7823 -121.772 -39.7725 13.6025 -8.10985 -14.4301 1.29002 -8.88108 76.7133 -27.3878 43.2665 34.819 -45.549 -49.4822 -49.3543 -20.0712 5.26462 -9.21088 0.0209379 4.92372 -124.6 -6.88914 -17.038 80.2988 2.37914 5.62259 48.0559 -2.13616 -4.21042 -105.438 -2.63568 -1.87605 76.3063 -3.18451 -0.945151 55.3953 0.839033 -1.71721 168.561 28.589 121.255 169.654 2.68029 -168.445 
-0.9137979 0.4616460 1.3615253 3.18408 -4.30297 78.1977 -166.158 -3.03525 -2.83266 -20.8165 1.82574 -11.0769 -31.4197 5.06481 -9.08167 -115.122 76.9632 116.717 -108.669 -31.5838 -143.987 137.4 -32.0954 -121.811 -39.7667 13.5157 -7.99576 -14.1028 1.28495 -8.94573 76.729 -27.3845 43.3192 35.0527 -45.5632 -49.6673 -49.2355 -20.107 5.48978 -9.0454 0.0393149 4.86686 -124.942 -6.91421 -17.117 79.9394 2.76616 5.77072 48.2307 -2.19067 -4.27255 -105.719 -2.40486 -1.77215 76.2133 -2.98188 -1.03182 55.4103 0.802902 -1.75493 161.112 22.7437 122.075 167.641 12.4599 -164.529 
-0.9144025 0.4615730 1.3608730 3.44697 -4.05801 78.6140 -165.887 -3.1168 -2.99399 -21.8485 1.48785 -10.0511 -31.0476 2.64264 -8.91256 -110.268 77.6102 111.473 -108.446 -31.3605 -143.85 137.371 -32.6458 -121.991 -40.0544 13.6218 -7.89489 -13.7791 1.27717 -9.06473 76.6202 -27.4586 43.0923 35.3044 -45.9349 -49.46 -49.3831 -20.2915 5.46146 -8.94001 0.108363 4.6654 -125.203 -6.91529 -17.121 79.6191 2.99701 5.95409 48.085 -2.2294 -4.33044 -106.196 -2.25164 -1.64157 76.323 -2.95688 -1.13752 55.5012 0.790244 -1.76462 156.907 20.4049 122.559 164.939 17.2856 -160.787 
-0.9149016 0.4617840 1.3599436 3.68578 -4.02888 78.9836 -165.151 -3.26192 -3.3807 -23.2127 1.02075 -8.68181 -31.0623 0.308302 -9.07284 -105.873 77.1456 107.24 -108.248 -31.2345 -143.553 137.5 -33.2319 -121.909 -40.1436 13.7188 -7.82654 -13.4405 1.29273 -9.29547 76.5933 -27.3876 42.7966 34.5152 -47.1342 -48.5874 -50.0057 -19.5831 4.62147 -8.59784 0.0900464 4.85554 -125.211 -6.84781 -16.9216 79.2513 3.14251 6.01197 48.1015 -2.24413 -4.35636 -106.279 -2.42914 -1.7733 76.182 -3.06136 -1.06727 55.6459 0.799323 -1.76062 157.133 22.0182 123.227 162.714 16.1876 -158.792 
-0.9150129 0.4619800 1.3587785 3.80129 -4.17791 79.1955 -164.1 -3.37872 -3.71 -24.6777 0.696679 -7.63741 -31.2487 -1.87858 -8.56396 -101.429 77.8248 103.819 -108.217 -31.2683 -143.375 137.5 -33.929 -121.76 -40.4925 13.9868 -7.86194 -12.9187 1.27619 -9.47659 76.6292 -27.2974 42.6932 35.2727 -47.2396 -48.1217 -50.5567 -19.7003 4.54907 -8.25994 0.165916 4.41958 -125.104 -6.86418 -16.9584 79.0353 3.36093 6.11917 48.0352 -2.26985 -4.39468 -106.364 -2.36012 -1.81749 76.2955 -2.68104 -1.02641 55.9041 0.763674 -1.82953 160.331 26.6872 123.922 161.578 11.1557 -159.31 
-0.9149300 0.4621000 1.3572148 3.82760 -4.26168 79.2644 -163.334 -3.37396 -3.84017 -25.7488 0.633109 -7.15289 -31.6157 -3.48833 -7.89416 -97.1002 79.0216 100.013 -108.367 -31.433 -143.438 137.979 -34.5278 -121.55 -40.7492 13.8507 -7.79712 -11.9641 1.28687 -9.75985 76.6161 -27.3743 42.8498 35.2667 -47.7002 -47.9815 -51.1063 -19.6452 4.37778 -7.75159 0.211317 4.19396 -125.164 -6.65562 -16.7532 78.9538 3.42531 6.02509 48.1553 -2.25749 -4.38265 -106.225 -2.66112 -2.24233 76.272 -2.27469 -0.848954 55.1189 0.658015 -1.88285 165.102 33.5596 124.234 162.078 3.56905 -162.315 
